<?xml version="1.0" encoding="utf-8"?>
<!-- Generator: Adobe Illustrator 24.1.1, SVG Export Plug-In . SVG Version: 6.00 Build 0)  -->
<svg version="1.1" xmlns="http://www.w3.org/2000/svg" xmlns:xlink="http://www.w3.org/1999/xlink" x="0px" y="0px"
	 viewBox="0 0 841.89 236.57" style="enable-background:new 0 0 841.89 236.57;" xml:space="preserve">
<style type="text/css">
	.st0{display:none;}
	.st1{display:inline;fill:#FFFFFF;}
	.st2{fill:#A50104;}
</style>
<g id="Layer_3" class="st0">
	<rect y="-155.06" class="st1" width="841.89" height="595.28"/>
</g>
<g id="Layer_1">
	<g>
		<path d="M307.57,62.29h14.03l12.99,36.06l13.06-36.06h14.03v48.63h-9.52V76.81l-12.3,34.11h-10.49l-12.09-34.11v34.11h-9.73V62.29
			z"/>
		<path d="M378.91,109.85c-2.18-0.72-4.08-1.9-5.7-3.54c-1.62-1.64-2.91-3.79-3.86-6.43c-0.95-2.64-1.42-5.91-1.42-9.8
			s0.47-7.16,1.42-9.8c0.95-2.64,2.23-4.78,3.86-6.43c1.62-1.64,3.52-2.82,5.7-3.54c2.18-0.72,4.49-1.08,6.95-1.08h15.49v7.85
			h-14.31c-1.39,0-2.7,0.21-3.93,0.63c-1.23,0.42-2.29,1.12-3.2,2.12c-0.9,1-1.62,2.33-2.15,3.99c-0.53,1.67-0.8,3.75-0.8,6.25
			s0.27,4.59,0.8,6.25c0.53,1.67,1.25,3,2.15,3.99c0.9,1,1.97,1.7,3.2,2.12c1.23,0.42,2.54,0.63,3.93,0.63h14.31v7.85h-15.49
			C383.41,110.92,381.09,110.57,378.91,109.85z"/>
		<path d="M422.89,90.36l-18.76-28.07h11.81l11.81,18.97l11.81-18.97h11.81l-18.76,28.07v20.56h-9.73V90.36z"/>
		<path d="M448.87,90.08c0-4.03,0.53-7.43,1.59-10.21c1.06-2.78,2.51-5.04,4.33-6.77c1.83-1.74,3.97-2.99,6.42-3.75
			c2.45-0.76,5.09-1.15,7.91-1.15c2.77,0,5.38,0.38,7.84,1.15c2.45,0.76,4.6,2.01,6.45,3.75c1.85,1.74,3.32,3.99,4.4,6.77
			c1.09,2.78,1.63,6.18,1.63,10.21s-0.54,7.43-1.63,10.21c-1.09,2.78-2.55,5.04-4.4,6.77c-1.85,1.74-4,2.99-6.45,3.75
			c-2.45,0.76-5.06,1.15-7.84,1.15c-2.82,0-5.46-0.38-7.91-1.15c-2.45-0.76-4.59-2.01-6.42-3.75c-1.82-1.74-3.27-3.99-4.33-6.77
			C449.4,97.52,448.87,94.11,448.87,90.08z M469.16,104.12c1.53,0,2.98-0.23,4.34-0.69c1.36-0.46,2.56-1.23,3.58-2.29
			c1.02-1.07,1.83-2.5,2.43-4.31c0.6-1.81,0.9-4.05,0.9-6.74c0-2.69-0.3-4.93-0.9-6.74c-0.6-1.81-1.41-3.24-2.43-4.31
			c-1.02-1.06-2.21-1.83-3.58-2.29c-1.37-0.46-2.81-0.69-4.34-0.69c-1.53,0-2.98,0.23-4.34,0.69c-1.37,0.46-2.56,1.23-3.58,2.29
			c-1.02,1.07-1.83,2.5-2.43,4.31c-0.6,1.81-0.9,4.05-0.9,6.74c0,2.69,0.3,4.93,0.9,6.74c0.6,1.81,1.41,3.24,2.43,4.31
			c1.02,1.07,2.21,1.83,3.58,2.29C466.18,103.88,467.63,104.12,469.16,104.12z"/>
		<path d="M495.07,69.24h9.03v25.91c0,1.48,0.27,2.72,0.8,3.72c0.53,1,1.25,1.81,2.15,2.43c0.9,0.63,1.97,1.08,3.2,1.35
			c1.23,0.28,2.54,0.42,3.93,0.42h8.68V69.24h9.03v41.68h-18.9c-2.46,0-4.77-0.27-6.95-0.8c-2.18-0.53-4.08-1.42-5.7-2.67
			c-1.62-1.25-2.91-2.88-3.86-4.9c-0.95-2.01-1.42-4.48-1.42-7.4V69.24z"/>
		<path d="M540.23,69.24h18.9c2.45,0,4.77,0.27,6.95,0.8c2.18,0.53,4.07,1.42,5.7,2.67c1.62,1.25,2.91,2.88,3.86,4.9
			c0.95,2.01,1.42,4.48,1.42,7.4v25.91h-9.03V85.01c0-1.48-0.27-2.72-0.8-3.72c-0.53-1-1.25-1.81-2.15-2.43
			c-0.9-0.63-1.97-1.08-3.19-1.35c-1.23-0.28-2.54-0.42-3.93-0.42h-8.68v33.83h-9.03V69.24z"/>
		<path d="M584.69,55.35h9.03v9.03h-9.03V55.35z M584.69,69.24h9.03v41.68h-9.03V69.24z"/>
		<path d="M596.5,69.24h10.14l12.99,30.64l12.99-30.64h10.14l-18.62,41.68h-9.03L596.5,69.24z"/>
		<path d="M654.44,109.85c-2.18-0.72-4.08-1.9-5.7-3.54c-1.62-1.64-2.91-3.79-3.86-6.43c-0.95-2.64-1.42-5.91-1.42-9.8
			s0.47-7.16,1.42-9.8c0.95-2.64,2.23-4.78,3.86-6.43c1.62-1.64,3.52-2.82,5.7-3.54c2.18-0.72,4.49-1.08,6.95-1.08h15.49v7.85
			h-14.31c-1.2,0-2.34,0.15-3.4,0.45c-1.07,0.3-2.03,0.8-2.88,1.49c-0.86,0.69-1.59,1.62-2.19,2.78c-0.6,1.16-1.04,2.59-1.32,4.31
			h24.11v7.92h-24.11c0.28,1.76,0.72,3.22,1.32,4.38c0.6,1.16,1.33,2.08,2.19,2.78c0.86,0.69,1.82,1.18,2.88,1.46
			c1.07,0.28,2.2,0.42,3.4,0.42h14.31v7.85h-15.49C658.93,110.92,656.61,110.57,654.44,109.85z"/>
		<path d="M684.52,85.01c0-2.92,0.47-5.38,1.42-7.4c0.95-2.01,2.23-3.65,3.86-4.9c1.62-1.25,3.52-2.14,5.7-2.67
			c2.18-0.53,4.49-0.8,6.95-0.8h13.34v16.67h-9.03v-8.82h-3.13c-1.39,0-2.7,0.14-3.93,0.42c-1.23,0.28-2.29,0.73-3.2,1.35
			c-0.9,0.63-1.62,1.44-2.15,2.43c-0.53,1-0.8,2.23-0.8,3.72v25.91h-9.03V85.01z"/>
		<path d="M722.87,103.07h21.81c1.57,0,2.91-0.34,3.99-1.01c1.09-0.67,1.63-1.82,1.63-3.44c0-1.76-0.54-2.96-1.63-3.61
			c-1.09-0.65-2.42-0.97-3.99-0.97h-10.14c-1.95,0-3.72-0.21-5.31-0.63c-1.6-0.42-2.95-1.11-4.06-2.08
			c-1.11-0.97-1.97-2.26-2.57-3.86c-0.6-1.6-0.9-3.58-0.9-5.94c0-2.32,0.3-4.26,0.9-5.84c0.6-1.57,1.46-2.84,2.57-3.79
			c1.11-0.95,2.47-1.63,4.06-2.05c1.6-0.42,3.37-0.63,5.31-0.63h22.99v7.85h-21.81c-1.58,0-2.92,0.34-4.03,1.01
			c-1.11,0.67-1.67,1.82-1.67,3.44c0,1.76,0.55,2.96,1.66,3.61c1.11,0.65,2.45,0.97,4.02,0.97h10.12c1.94,0,3.71,0.21,5.3,0.63
			c1.59,0.42,2.94,1.11,4.05,2.08c1.11,0.97,1.96,2.26,2.56,3.86c0.6,1.6,0.9,3.58,0.9,5.94c0,2.32-0.3,4.26-0.89,5.84
			c-0.6,1.58-1.45,2.84-2.55,3.79c-1.1,0.95-2.45,1.63-4.04,2.05c-1.59,0.42-3.36,0.63-5.3,0.63h-22.99V103.07z"/>
		<path d="M774.9,109.85c-2.18-0.72-4.08-1.9-5.7-3.54c-1.62-1.64-2.91-3.79-3.86-6.43c-0.95-2.64-1.42-5.91-1.42-9.8
			s0.47-7.16,1.42-9.8c0.95-2.64,2.23-4.78,3.86-6.43c1.62-1.64,3.52-2.82,5.7-3.54c2.18-0.72,4.49-1.08,6.95-1.08h15.49v7.85
			h-14.31c-1.2,0-2.34,0.15-3.4,0.45c-1.07,0.3-2.03,0.8-2.88,1.49c-0.86,0.69-1.59,1.62-2.19,2.78c-0.6,1.16-1.04,2.59-1.32,4.31
			h24.11v7.92h-24.11c0.28,1.76,0.72,3.22,1.32,4.38c0.6,1.16,1.33,2.08,2.19,2.78c0.86,0.69,1.82,1.18,2.88,1.46
			c1.07,0.28,2.2,0.42,3.4,0.42h14.31v7.85h-15.49C779.39,110.92,777.08,110.57,774.9,109.85z"/>
		<path d="M318.23,172.8c-2.52-0.86-4.74-2.23-6.63-4.13c-1.9-1.9-3.39-4.4-4.48-7.5c-1.09-3.1-1.63-6.9-1.63-11.39
			c0-4.49,0.54-8.29,1.63-11.39c1.09-3.1,2.58-5.6,4.48-7.5c1.9-1.9,4.11-3.28,6.63-4.13c2.52-0.86,5.22-1.29,8.09-1.29h23.62v8.34
			h-22.23c-1.71,0-3.33,0.26-4.86,0.76c-1.53,0.51-2.86,1.38-3.99,2.61c-1.14,1.23-2.03,2.86-2.67,4.9
			c-0.65,2.04-0.97,4.61-0.97,7.71c0,3.1,0.32,5.67,0.97,7.71c0.65,2.04,1.54,3.67,2.67,4.9c1.13,1.23,2.47,2.1,3.99,2.61
			c1.53,0.51,3.15,0.76,4.86,0.76h12.5v-11.81h-9.73v-8.34h19.45v28.48h-23.62C323.45,174.08,320.75,173.65,318.23,172.8z"/>
		<path d="M355.64,148.17c0-2.92,0.47-5.38,1.42-7.4c0.95-2.01,2.23-3.65,3.86-4.9c1.62-1.25,3.52-2.14,5.7-2.67
			c2.18-0.53,4.49-0.8,6.95-0.8h13.34v16.67h-9.03v-8.82h-3.13c-1.39,0-2.7,0.14-3.93,0.42c-1.23,0.28-2.29,0.73-3.2,1.35
			c-0.9,0.63-1.62,1.44-2.15,2.43c-0.53,1-0.8,2.23-0.8,3.72v25.91h-9.03V148.17z"/>
		<path d="M391.77,153.24c0-4.03,0.53-7.43,1.59-10.21c1.06-2.78,2.51-5.04,4.33-6.77c1.83-1.74,3.96-2.99,6.42-3.75
			c2.45-0.76,5.09-1.15,7.91-1.15c2.77,0,5.38,0.38,7.84,1.15c2.45,0.76,4.6,2.01,6.45,3.75c1.85,1.74,3.32,3.99,4.4,6.77
			s1.63,6.18,1.63,10.21c0,4.03-0.54,7.43-1.63,10.21c-1.09,2.78-2.55,5.04-4.4,6.77c-1.85,1.74-4,2.99-6.45,3.75
			c-2.45,0.76-5.06,1.15-7.84,1.15c-2.82,0-5.46-0.38-7.91-1.15c-2.45-0.76-4.59-2.01-6.42-3.75c-1.83-1.74-3.27-3.99-4.33-6.77
			C392.3,160.67,391.77,157.27,391.77,153.24z M412.05,167.27c1.53,0,2.98-0.23,4.34-0.69c1.37-0.46,2.56-1.23,3.58-2.29
			c1.02-1.07,1.83-2.5,2.43-4.31c0.6-1.81,0.9-4.05,0.9-6.74s-0.3-4.93-0.9-6.74c-0.6-1.81-1.41-3.24-2.43-4.31
			c-1.02-1.06-2.21-1.83-3.58-2.29c-1.37-0.46-2.81-0.69-4.34-0.69c-1.53,0-2.98,0.23-4.34,0.69c-1.37,0.46-2.56,1.23-3.58,2.29
			c-1.02,1.07-1.83,2.5-2.43,4.31c-0.6,1.81-0.9,4.05-0.9,6.74s0.3,4.93,0.9,6.74c0.6,1.81,1.41,3.24,2.43,4.31
			c1.02,1.07,2.21,1.83,3.58,2.29C409.08,167.04,410.52,167.27,412.05,167.27z"/>
		<path d="M437.97,132.4H447v25.91c0,1.48,0.27,2.72,0.8,3.72c0.53,1,1.25,1.81,2.15,2.43c0.9,0.62,1.97,1.08,3.2,1.35
			c1.23,0.28,2.54,0.42,3.93,0.42h8.68V132.4h9.03v41.68h-18.9c-2.46,0-4.77-0.27-6.95-0.8c-2.18-0.53-4.08-1.42-5.7-2.67
			c-1.62-1.25-2.91-2.88-3.86-4.9c-0.95-2.01-1.42-4.48-1.42-7.4V132.4z"/>
		<path d="M492.15,187.98h-9.03V132.4h20.29c2.45,0,4.77,0.36,6.95,1.08c2.18,0.72,4.07,1.9,5.7,3.54c1.62,1.64,2.91,3.79,3.86,6.43
			c0.95,2.64,1.42,5.91,1.42,9.8c0,3.89-0.47,7.15-1.42,9.79c-0.95,2.64-2.23,4.78-3.86,6.43c-1.62,1.64-3.52,2.82-5.7,3.54
			c-2.18,0.72-4.49,1.08-6.95,1.08h-11.26V187.98z M502.23,166.23c1.39,0,2.7-0.21,3.93-0.63c1.23-0.42,2.29-1.12,3.2-2.12
			c0.9-1,1.62-2.33,2.15-3.99c0.53-1.67,0.8-3.75,0.8-6.25c0-2.5-0.27-4.59-0.8-6.25c-0.53-1.67-1.25-3-2.15-3.99
			c-0.9-1-1.97-1.7-3.2-2.12c-1.23-0.42-2.54-0.63-3.93-0.63h-10.07v25.98H502.23z"/>
	</g>
</g>
<g id="Layer_4">
	<g>
		<g>
			<path d="M280.13,162.45c0.16,3.54-1.13,6.59-3.86,9.16c-2.73,2.57-5.87,3.86-9.4,3.86c-3.54,0-6.63-1.17-9.28-3.5
				c-2.65-2.33-3.98-5.26-3.98-8.8v-47.23c0-9.8-3.62-18.23-10.86-25.3c-7.24-7.07-15.95-10.6-26.13-10.6
				c-7.64,0-14.6,2.13-20.88,6.39c-6.28,4.26-10.78,9.76-13.48,16.51c-1.43,3.54-2.15,6.02-2.15,7.47c0,6.26,0,14.7,0,25.3
				c0,12.53,0,20.96,0,25.3c0,3.7-1.37,7.03-4.1,10c-2.73,2.97-6.02,4.46-9.88,4.46c-3.54,0-6.63-1.16-9.28-3.48
				c-2.65-2.32-3.98-5.33-3.98-9.02v-46.87c0-0.64,0-1.6,0-2.88c0-1.28,0-2.24,0-2.88c0-1.76-0.64-4.33-1.91-7.69
				c-2.7-7.05-7.24-12.74-13.6-17.06c-6.36-4.33-13.44-6.49-21.23-6.49c-10.18,0-18.85,3.49-26.01,10.46
				c-7.16,6.97-10.74,15.43-10.74,25.36c0-0.16,0,15.22,0,46.15c0,3.52-1.37,6.57-4.1,9.13c-2.73,2.56-5.87,3.84-9.4,3.84
				c-3.53,0-6.63-1.17-9.28-3.5c-2.65-2.33-3.98-5.26-3.98-8.8V114.5c0-16.87,6.15-31.28,18.45-43.25
				c12.3-11.97,27.22-17.95,44.75-17.95c21.07,0,38.03,8.11,50.9,24.34c12.54-15.26,29.02-22.89,49.45-22.89
				c17.53,0,32.56,5.99,45.11,17.95c12.55,11.97,18.82,26.47,18.82,43.49C280.13,116.03,280.13,131.45,280.13,162.45z"/>
		</g>
	</g>
	<path class="st2" d="M222.24,80.44c14.4,0,15.55-25.46,1.15-25.46c-32.06-3.33-71.22,14.32-68.74,65.07
		c-0.11,25.05,19.39,63.01,80.09,54.79v-53.34c-0.53-19.78-23.36-19.37-22.82,0.41l-0.08,29.83c-16.68,0.31-31.62-14.6-31.62-30.01
		C180.22,96.54,191.95,80.44,222.24,80.44z"/>
</g>
</svg>
