<?xml version="1.0" encoding="utf-8"?>
<!-- Generator: Adobe Illustrator 24.1.1, SVG Export Plug-In . SVG Version: 6.00 Build 0)  -->
<svg version="1.1" id="Layer_1" xmlns="http://www.w3.org/2000/svg" xmlns:xlink="http://www.w3.org/1999/xlink" x="0px" y="0px"
	 viewBox="0 0 423 133" style="enable-background:new 0 0 423 133;" xml:space="preserve">
<style type="text/css">
	.st0{fill-rule:evenodd;clip-rule:evenodd;fill:#00AEE3;}
	.st1{fill-rule:evenodd;clip-rule:evenodd;fill:#FF393C;}
	.st2{fill-rule:evenodd;clip-rule:evenodd;fill:#003672;}
	.st3{fill:#003672;}
</style>
<path class="st0" d="M13.3,0c0,21.2,17.2,38.6,38.6,38.6c21.4,0,38.6-17.4,38.6-38.6h13.2c0,28.5-23.1,51.9-51.9,51.9
	S0.1,28.5,0.1,0H13.3z"/>
<path class="st1" d="M36.8,0.5c0,8.4,6.7,15.2,15.2,15.2c8.4,0,15.2-6.7,15.2-15.2h13.2c0,15.7-12.7,28.4-28.4,28.4
	c-15.7,0-28.4-12.7-28.4-28.4H36.8z"/>
<path class="st2" d="M23.5,58.2v22.6c0,15.7,12.7,28.4,28.4,28.4c15.7,0,28.4-12.7,28.4-28.4V58.2c-4.2,2.2-8.6,3.9-13.2,5v17.5
	c0,8.4-6.7,15.2-15.2,15.2c-8.4,0-15.2-6.7-15.2-15.2V63.2C32.1,62,27.7,60.3,23.5,58.2z"/>
<path class="st2" d="M0.1,37.6v42.6c0,28.8,23.4,51.9,51.9,51.9s51.9-23.1,51.9-51.9V37.6c-3.8,5.3-8.2,10-13.2,13.9v28.7
	c0,21.4-17.4,38.6-38.6,38.6s-38.6-17.2-38.6-38.6V51.6C8.3,47.6,3.9,42.9,0.1,37.6z"/>
<path class="st3" d="M131.7,3.3h8.8l6.9,13.7h0.3l6.9-13.7h8.8L151.5,25v10.9h-7.8V25L131.7,3.3z"/>
<path class="st3" d="M195.4,19.6c0,3.6-0.7,6.6-2.1,9.1c-1.4,2.5-3.3,4.4-5.6,5.7c-2.3,1.3-5,1.9-7.9,1.9c-2.9,0-5.6-0.7-7.9-2
	c-2.3-1.3-4.2-3.2-5.6-5.7c-1.4-2.5-2.1-5.5-2.1-9.1c0-3.6,0.7-6.6,2.1-9.1c1.4-2.5,3.2-4.4,5.6-5.7c2.3-1.3,5-1.9,7.9-1.9
	c2.9,0,5.6,0.6,7.9,1.9c2.4,1.3,4.2,3.2,5.6,5.7C194.7,12.9,195.4,16,195.4,19.6z M187.4,19.6c0-2.1-0.3-3.9-0.9-5.4
	c-0.6-1.5-1.5-2.6-2.6-3.3c-1.1-0.8-2.5-1.1-4-1.1c-1.6,0-2.9,0.4-4,1.1c-1.1,0.8-2,1.9-2.6,3.3c-0.6,1.5-0.9,3.3-0.9,5.4
	c0,2.1,0.3,3.9,0.9,5.4c0.6,1.5,1.5,2.6,2.6,3.3c1.1,0.8,2.5,1.1,4,1.1c1.6,0,2.9-0.4,4-1.1c1.1-0.8,2-1.9,2.6-3.3
	C187.1,23.5,187.4,21.7,187.4,19.6z"/>
<path class="st3" d="M219.8,3.3h7.9v21.1c0,2.4-0.6,4.6-1.7,6.4c-1.2,1.8-2.8,3.2-4.8,4.2c-2.1,1-4.5,1.5-7.2,1.5
	c-2.8,0-5.2-0.5-7.3-1.5c-2.1-1-3.7-2.4-4.8-4.2c-1.1-1.8-1.7-3.9-1.7-6.4V3.3h7.9v20.4c0,1.1,0.2,2.1,0.7,3
	c0.5,0.9,1.2,1.6,2.1,2.1c0.9,0.5,1.9,0.7,3.1,0.7c1.2,0,2.2-0.2,3.1-0.7c0.9-0.5,1.6-1.2,2.1-2.1c0.5-0.9,0.7-1.9,0.7-3V3.3z"/>
<path class="st3" d="M260.4,3.3v32.6h-6.7l-13-18.8h-0.2v18.8h-7.9V3.3h6.8l12.8,18.8h0.3V3.3H260.4z"/>
<path class="st3" d="M273.2,3.3v32.6h-7.9V3.3H273.2z"/>
<path class="st3" d="M285.6,3.3l7.3,23.9h0.3l7.3-23.9h8.8l-11,32.6h-10.5l-11-32.6H285.6z"/>
<path class="st3" d="M312.8,35.9V3.3h22.8v6.4h-14.9v6.7h13.7v6.4h-13.7v6.7h14.9v6.4H312.8z"/>
<path class="st3" d="M340.5,35.9V3.3H354c2.4,0,4.6,0.4,6.3,1.3c1.8,0.9,3.2,2.1,4.1,3.8c1,1.6,1.5,3.6,1.5,5.8
	c0,2.3-0.5,4.2-1.5,5.8c-1,1.6-2.4,2.8-4.2,3.6c-1.8,0.8-4,1.2-6.5,1.2h-8.5v-6.2h7.1c1.2,0,2.2-0.2,3-0.5c0.8-0.3,1.4-0.8,1.8-1.4
	c0.4-0.6,0.6-1.5,0.6-2.5s-0.2-1.8-0.6-2.5c-0.4-0.7-1-1.2-1.8-1.5c-0.8-0.3-1.8-0.5-3-0.5h-3.9v26.3H340.5z M358.9,21l8.1,14.9
	h-8.6l-8-14.9H358.9z"/>
<path class="st3" d="M387.9,13c-0.1-1.2-0.6-2.1-1.4-2.7c-0.8-0.7-2-1-3.6-1c-1,0-1.9,0.1-2.5,0.4s-1.2,0.6-1.5,1.1
	c-0.3,0.5-0.5,1-0.5,1.6c0,0.5,0.1,0.9,0.3,1.3c0.2,0.4,0.5,0.7,1,1c0.4,0.3,0.9,0.5,1.5,0.7c0.6,0.2,1.3,0.4,2,0.6l2.8,0.6
	c1.6,0.4,3,0.8,4.3,1.4c1.2,0.6,2.3,1.3,3.1,2.1c0.9,0.8,1.5,1.7,1.9,2.8c0.4,1.1,0.7,2.2,0.7,3.5c0,2.1-0.5,3.8-1.6,5.3
	c-1,1.5-2.5,2.6-4.4,3.4c-1.9,0.8-4.2,1.2-7,1.2c-2.7,0-5.1-0.4-7.1-1.2c-2-0.8-3.6-2.1-4.7-3.7c-1.1-1.7-1.7-3.8-1.7-6.3h7.6
	c0.1,1.1,0.3,1.9,0.8,2.6c0.5,0.7,1.2,1.2,2.1,1.6c0.9,0.4,1.9,0.5,3.1,0.5c1.1,0,2-0.1,2.7-0.4c0.8-0.3,1.3-0.7,1.7-1.2
	c0.4-0.5,0.6-1.1,0.6-1.8c0-0.6-0.2-1.1-0.6-1.6c-0.4-0.4-0.9-0.8-1.7-1.1c-0.8-0.3-1.7-0.6-2.9-0.9l-3.4-0.8
	c-2.8-0.6-5.1-1.7-6.7-3.1c-1.6-1.5-2.4-3.4-2.4-5.9c0-2,0.5-3.8,1.6-5.3s2.6-2.7,4.5-3.6c1.9-0.9,4.1-1.3,6.6-1.3
	c2.5,0,4.7,0.4,6.6,1.3c1.9,0.9,3.3,2,4.4,3.6c1,1.5,1.6,3.3,1.6,5.4H387.9z"/>
<path class="st3" d="M399.9,35.9V3.3h22.8v6.4h-14.9v6.7h13.7v6.4h-13.7v6.7h14.9v6.4H399.9z"/>
<path class="st3" d="M133.4,79.9V47.3H147c2.4,0,4.5,0.3,6.1,1c1.7,0.7,2.9,1.7,3.7,2.9c0.8,1.2,1.3,2.7,1.3,4.3
	c0,1.2-0.3,2.4-0.8,3.3c-0.5,1-1.2,1.8-2.2,2.4c-0.9,0.6-2,1.1-3.2,1.3v0.3c1.3,0.1,2.5,0.4,3.6,1.1c1.1,0.6,2,1.6,2.7,2.7
	c0.7,1.1,1,2.5,1,4.1c0,1.8-0.4,3.3-1.3,4.7c-0.9,1.4-2.2,2.5-3.9,3.3c-1.7,0.8-3.7,1.2-6.2,1.2H133.4z M141.3,73.5h4.9
	c1.7,0,3-0.3,3.8-1c0.8-0.6,1.2-1.6,1.2-2.7c0-0.8-0.2-1.6-0.6-2.2c-0.4-0.6-1-1.1-1.7-1.4c-0.7-0.3-1.6-0.5-2.6-0.5h-5V73.5z
	 M141.3,60.7h4.4c0.9,0,1.6-0.1,2.3-0.4c0.7-0.3,1.2-0.7,1.6-1.2c0.4-0.5,0.6-1.2,0.6-2c0-1.1-0.4-2-1.2-2.6s-1.8-0.9-3.1-0.9h-4.5
	V60.7z"/>
<path class="st3" d="M182.9,47.3h7.9v21.1c0,2.4-0.6,4.6-1.7,6.4c-1.2,1.8-2.8,3.2-4.8,4.2c-2.1,1-4.5,1.5-7.2,1.5
	c-2.8,0-5.2-0.5-7.3-1.5c-2.1-1-3.7-2.4-4.8-4.2c-1.1-1.8-1.7-3.9-1.7-6.4V47.3h7.9v20.4c0,1.1,0.2,2.1,0.7,3
	c0.5,0.9,1.2,1.6,2.1,2.1c0.9,0.5,1.9,0.7,3.1,0.7c1.2,0,2.2-0.2,3.1-0.7c0.9-0.5,1.6-1.2,2.1-2.1c0.5-0.9,0.7-1.9,0.7-3V47.3z"/>
<path class="st3" d="M213.4,57c-0.1-1.2-0.6-2.1-1.4-2.7c-0.8-0.7-2-1-3.6-1c-1,0-1.9,0.1-2.5,0.4c-0.7,0.3-1.2,0.6-1.5,1.1
	c-0.3,0.5-0.5,1-0.5,1.6c0,0.5,0.1,0.9,0.3,1.3c0.2,0.4,0.5,0.7,1,1c0.4,0.3,0.9,0.5,1.5,0.7c0.6,0.2,1.3,0.4,2,0.6l2.8,0.6
	c1.6,0.4,3,0.8,4.3,1.4c1.2,0.6,2.3,1.3,3.1,2.1c0.9,0.8,1.5,1.7,1.9,2.8c0.4,1.1,0.7,2.2,0.7,3.5c0,2.1-0.5,3.8-1.6,5.3
	c-1,1.5-2.5,2.6-4.4,3.4c-1.9,0.8-4.2,1.2-7,1.2c-2.7,0-5.1-0.4-7.1-1.2c-2-0.8-3.6-2.1-4.7-3.7c-1.1-1.7-1.7-3.8-1.7-6.3h7.6
	c0.1,1.1,0.3,1.9,0.8,2.6c0.5,0.7,1.2,1.2,2.1,1.6c0.9,0.4,1.9,0.5,3.1,0.5c1.1,0,2-0.1,2.7-0.4c0.8-0.3,1.3-0.7,1.7-1.2
	c0.4-0.5,0.6-1.1,0.6-1.8c0-0.6-0.2-1.1-0.6-1.6c-0.4-0.4-0.9-0.8-1.7-1.1c-0.8-0.3-1.7-0.6-2.9-0.9l-3.4-0.8
	c-2.8-0.6-5.1-1.7-6.7-3.1c-1.6-1.5-2.4-3.4-2.4-5.9c0-2,0.5-3.8,1.6-5.3c1.1-1.5,2.6-2.7,4.5-3.6c1.9-0.9,4.1-1.3,6.6-1.3
	c2.5,0,4.7,0.4,6.6,1.3c1.9,0.9,3.3,2,4.4,3.6c1,1.5,1.6,3.3,1.6,5.4H213.4z"/>
<path class="st3" d="M233.3,47.3v32.6h-7.9V47.3H233.3z"/>
<path class="st3" d="M266,47.3v32.6h-6.7l-13-18.8h-0.2v18.8h-7.9V47.3h6.8l12.8,18.8h0.3V47.3H266z"/>
<path class="st3" d="M271,79.9V47.3h22.8v6.4h-14.9v6.7h13.7v6.4h-13.7v6.7h14.9v6.4H271z"/>
<path class="st3" d="M316.3,57c-0.1-1.2-0.6-2.1-1.4-2.7c-0.8-0.7-2-1-3.6-1c-1,0-1.9,0.1-2.5,0.4c-0.7,0.3-1.2,0.6-1.5,1.1
	c-0.3,0.5-0.5,1-0.5,1.6c0,0.5,0.1,0.9,0.3,1.3c0.2,0.4,0.5,0.7,1,1c0.4,0.3,0.9,0.5,1.5,0.7c0.6,0.2,1.3,0.4,2,0.6l2.8,0.6
	c1.6,0.4,3,0.8,4.3,1.4c1.2,0.6,2.3,1.3,3.1,2.1c0.9,0.8,1.5,1.7,1.9,2.8c0.4,1.1,0.7,2.2,0.7,3.5c0,2.1-0.5,3.8-1.6,5.3
	c-1,1.5-2.5,2.6-4.4,3.4c-1.9,0.8-4.2,1.2-7,1.2c-2.7,0-5.1-0.4-7.1-1.2c-2-0.8-3.6-2.1-4.7-3.7c-1.1-1.7-1.7-3.8-1.7-6.3h7.6
	c0.1,1.1,0.3,1.9,0.8,2.6c0.5,0.7,1.2,1.2,2.1,1.6c0.9,0.4,1.9,0.5,3.1,0.5c1.1,0,2-0.1,2.7-0.4c0.8-0.3,1.3-0.7,1.7-1.2
	c0.4-0.5,0.6-1.1,0.6-1.8c0-0.6-0.2-1.1-0.6-1.6c-0.4-0.4-0.9-0.8-1.7-1.1c-0.8-0.3-1.7-0.6-2.9-0.9l-3.4-0.8
	c-2.8-0.6-5.1-1.7-6.7-3.1c-1.6-1.5-2.4-3.4-2.4-5.9c0-2,0.5-3.8,1.6-5.3c1.1-1.5,2.6-2.7,4.5-3.6c1.9-0.9,4.1-1.3,6.6-1.3
	c2.5,0,4.7,0.4,6.6,1.3c1.9,0.9,3.3,2,4.4,3.6c1,1.5,1.6,3.3,1.6,5.4H316.3z"/>
<path class="st3" d="M345.9,57c-0.1-1.2-0.6-2.1-1.4-2.7c-0.8-0.7-2-1-3.6-1c-1,0-1.9,0.1-2.5,0.4c-0.7,0.3-1.2,0.6-1.5,1.1
	c-0.3,0.5-0.5,1-0.5,1.6c0,0.5,0.1,0.9,0.3,1.3c0.2,0.4,0.5,0.7,1,1c0.4,0.3,0.9,0.5,1.5,0.7c0.6,0.2,1.3,0.4,2,0.6l2.8,0.6
	c1.6,0.4,3,0.8,4.3,1.4c1.2,0.6,2.3,1.3,3.1,2.1c0.9,0.8,1.5,1.7,1.9,2.8c0.4,1.1,0.7,2.2,0.7,3.5c0,2.1-0.5,3.8-1.6,5.3
	c-1,1.5-2.5,2.6-4.4,3.4c-1.9,0.8-4.2,1.2-7,1.2c-2.7,0-5.1-0.4-7.1-1.2s-3.6-2.1-4.7-3.7c-1.1-1.7-1.7-3.8-1.7-6.3h7.6
	c0.1,1.1,0.3,1.9,0.8,2.6c0.5,0.7,1.2,1.2,2.1,1.6c0.9,0.4,1.9,0.5,3.1,0.5c1.1,0,2-0.1,2.7-0.4c0.8-0.3,1.3-0.7,1.7-1.2
	c0.4-0.5,0.6-1.1,0.6-1.8c0-0.6-0.2-1.1-0.6-1.6c-0.4-0.4-0.9-0.8-1.7-1.1c-0.8-0.3-1.7-0.6-2.9-0.9l-3.4-0.8
	c-2.8-0.6-5.1-1.7-6.7-3.1c-1.6-1.5-2.4-3.4-2.4-5.9c0-2,0.5-3.8,1.6-5.3c1.1-1.5,2.6-2.7,4.5-3.6c1.9-0.9,4.1-1.3,6.6-1.3
	c2.5,0,4.7,0.4,6.6,1.3c1.9,0.9,3.3,2,4.4,3.6c1,1.5,1.6,3.3,1.6,5.4H345.9z"/>
<path class="st3" d="M151,101c-0.1-1.2-0.6-2.1-1.4-2.7c-0.8-0.7-2-1-3.6-1c-1,0-1.9,0.1-2.6,0.4c-0.7,0.3-1.2,0.6-1.5,1.1
	c-0.3,0.5-0.5,1-0.5,1.6c0,0.5,0.1,0.9,0.3,1.3c0.2,0.4,0.5,0.7,1,1c0.4,0.3,0.9,0.5,1.5,0.7c0.6,0.2,1.3,0.4,2,0.6l2.8,0.6
	c1.6,0.3,3,0.8,4.3,1.4c1.2,0.6,2.3,1.3,3.1,2.1c0.9,0.8,1.5,1.7,1.9,2.8c0.4,1.1,0.7,2.2,0.7,3.5c0,2.1-0.5,3.8-1.6,5.3
	c-1,1.5-2.5,2.6-4.4,3.4c-1.9,0.8-4.2,1.2-7,1.2c-2.7,0-5.1-0.4-7.1-1.2c-2-0.8-3.6-2.1-4.7-3.7c-1.1-1.7-1.7-3.8-1.7-6.3h7.6
	c0.1,1.1,0.3,1.9,0.8,2.6c0.5,0.7,1.2,1.2,2.1,1.6c0.9,0.4,1.9,0.5,3.1,0.5c1.1,0,2-0.1,2.7-0.4c0.8-0.3,1.3-0.7,1.7-1.2
	c0.4-0.5,0.6-1.1,0.6-1.8c0-0.6-0.2-1.1-0.6-1.6c-0.4-0.4-0.9-0.8-1.7-1.1c-0.8-0.3-1.7-0.6-2.9-0.9l-3.4-0.8
	c-2.8-0.6-5.1-1.7-6.7-3.1c-1.6-1.5-2.4-3.4-2.4-5.9c0-2,0.5-3.8,1.6-5.3c1.1-1.5,2.6-2.7,4.5-3.6c1.9-0.8,4.1-1.3,6.6-1.3
	c2.5,0,4.7,0.4,6.6,1.3c1.9,0.8,3.3,2,4.4,3.6c1,1.5,1.6,3.3,1.6,5.4H151z"/>
<path class="st3" d="M192.6,103.1h-8c-0.1-0.8-0.3-1.6-0.7-2.2c-0.3-0.7-0.8-1.2-1.3-1.7c-0.5-0.5-1.2-0.8-1.9-1.1
	c-0.7-0.3-1.5-0.4-2.4-0.4c-1.6,0-2.9,0.4-4.1,1.2c-1.1,0.8-2,1.9-2.6,3.4c-0.6,1.5-0.9,3.2-0.9,5.3c0,2.2,0.3,4,0.9,5.5
	c0.6,1.5,1.5,2.6,2.6,3.3c1.1,0.7,2.5,1.1,4,1.1c0.9,0,1.7-0.1,2.4-0.3c0.7-0.2,1.4-0.5,1.9-1c0.6-0.4,1-1,1.4-1.6
	c0.4-0.6,0.6-1.3,0.7-2.1l8,0c-0.1,1.4-0.6,2.9-1.3,4.3c-0.7,1.4-1.6,2.7-2.9,3.8c-1.2,1.1-2.7,2.1-4.4,2.7c-1.7,0.7-3.7,1-6,1
	c-3,0-5.6-0.6-7.9-1.9c-2.3-1.3-4.2-3.2-5.5-5.7c-1.3-2.5-2-5.5-2-9.1c0-3.6,0.7-6.6,2.1-9.1c1.4-2.5,3.2-4.4,5.6-5.7
	c2.3-1.3,5-1.9,7.9-1.9c2,0,3.8,0.3,5.5,0.8c1.7,0.5,3.2,1.3,4.4,2.4c1.3,1,2.3,2.3,3.1,3.8C191.9,99.4,192.4,101.1,192.6,103.1z"/>
<path class="st3" d="M197.1,123.9V91.3h7.9v13.1h12.9V91.3h7.9v32.6h-7.9v-13.1H205v13.1H197.1z"/>
<path class="st3" d="M261.5,107.6c0,3.6-0.7,6.6-2.1,9.1c-1.4,2.5-3.3,4.4-5.6,5.7c-2.3,1.3-5,1.9-7.9,1.9c-2.9,0-5.6-0.7-7.9-2
	c-2.3-1.3-4.2-3.2-5.6-5.7c-1.4-2.5-2.1-5.5-2.1-9.1c0-3.6,0.7-6.6,2.1-9.1c1.4-2.5,3.2-4.4,5.6-5.7c2.3-1.3,5-1.9,7.9-1.9
	c2.9,0,5.6,0.6,7.9,1.9c2.4,1.3,4.2,3.2,5.6,5.7C260.8,100.9,261.5,104,261.5,107.6z M253.5,107.6c0-2.1-0.3-3.9-0.9-5.4
	c-0.6-1.5-1.5-2.6-2.6-3.3c-1.1-0.8-2.5-1.1-4-1.1c-1.6,0-2.9,0.4-4,1.1c-1.1,0.8-2,1.9-2.6,3.3c-0.6,1.5-0.9,3.3-0.9,5.4
	s0.3,3.9,0.9,5.4c0.6,1.5,1.5,2.6,2.6,3.3c1.1,0.8,2.5,1.1,4,1.1c1.6,0,2.9-0.4,4-1.1c1.1-0.8,2-1.9,2.6-3.3
	C253.2,111.5,253.5,109.7,253.5,107.6z"/>
<path class="st3" d="M296.9,107.6c0,3.6-0.7,6.6-2.1,9.1c-1.4,2.5-3.3,4.4-5.6,5.7c-2.3,1.3-5,1.9-7.9,1.9c-2.9,0-5.6-0.7-7.9-2
	s-4.2-3.2-5.6-5.7c-1.4-2.5-2.1-5.5-2.1-9.1c0-3.6,0.7-6.6,2.1-9.1c1.4-2.5,3.2-4.4,5.6-5.7s5-1.9,7.9-1.9c2.9,0,5.6,0.6,7.9,1.9
	c2.4,1.3,4.2,3.2,5.6,5.7C296.2,100.9,296.9,104,296.9,107.6z M288.9,107.6c0-2.1-0.3-3.9-0.9-5.4c-0.6-1.5-1.5-2.6-2.6-3.3
	c-1.1-0.8-2.5-1.1-4-1.1c-1.6,0-2.9,0.4-4,1.1c-1.1,0.8-2,1.9-2.6,3.3c-0.6,1.5-0.9,3.3-0.9,5.4s0.3,3.9,0.9,5.4
	c0.6,1.5,1.5,2.6,2.6,3.3c1.1,0.8,2.5,1.1,4,1.1c1.6,0,2.9-0.4,4-1.1c1.1-0.8,2-1.9,2.6-3.3C288.6,111.5,288.9,109.7,288.9,107.6z"
	/>
<path class="st3" d="M301.5,123.9V91.3h7.9v26.2H323v6.4H301.5z"/>
</svg>
